<svg width="212" height="199" xmlns="http://www.w3.org/2000/svg"><g fill-rule="nonzero" fill="none"><path d="M73.812 108.402v19.244a23.657 23.657 0 0 1-10.865 19.9L33.07 158.799l66.469 7.491v-57.888H73.812z" fill="#D8AB98"/><path d="M124.538 108.402v19.244c0 8.049 4.161 15.547 11.049 19.9l32.692 11.931-69.908 6.812v-57.888h26.167v.001z" fill="#DCB59F"/><path d="M108.199 14.893s8.175-5.873 12.303-6.325c4.126-.454 8.963-.655 10.738 1.479 1.773 2.135 20.859 24.391 20.141 29.697-.385 2.823-1.57 3.712-1.57 3.712s-1.227-6.65-1.227-1.906c0 4.744 5.012 11.717 5.58 14.685 1.7 8.868-6.954 33.577-8.891 35.765l-1.935 2.188s-1.386-4.816-1.746 1.497c-.234 4.084.354 4.657-2.684 8.784-2.59 3.514-12.938 16.487-14.345 13.101-7.994-19.271-17.902-85.191-16.364-102.677" fill="#6B4129"/><path d="M141.755 61.166s1.146 9.624 2.479 8.51c1.119-.937 2.372-12.767 3.197-11.643 1.805 2.46 1.031 16.107-.774 18.793-1.806 2.684-1.806 5.222-2.063 7.382-.258 2.158-3.994 4.577-4.509 2.564-.516-2.012 1.67-25.606 1.67-25.606M56.789 61.166s-3.871-5.594-5.675-3.132c-1.806 2.46-1.032 16.107.774 18.793 1.805 2.684 1.805 5.222 2.064 7.382.256 2.158 3.994 4.577 4.508 2.564.517-2.013-1.671-25.607-1.671-25.607" fill="#D6B6A2"/><path d="M99.539 131.449c-5.575 0-11-1.693-15.443-4.822l-13.851-9.755c-.524-.37-1.032-.76-1.477-1.206-4.99-4.999-6.87-13.284-8.087-19.972l-3.267-17.786a44.235 44.235 0 0 1-.708-9.342l-.313-23.859c.042-1.395.232-2.784.588-4.139 1.292-4.921 3.272-8.805 3.968-9.897 4.085-6.414 13.924-20.624 38.811-20.624" fill="#E0BCA4"/><path d="M99.578 99.226s-.839-.228-3.244-.587c-2.224-.333-14.094 4.49-14.094 4.49s8.276 5.13 17.338 4.458" fill="#DDB49E"/><path d="M97.848 93.811l-4.738-.945a3.907 3.907 0 0 0-2.536.339c-3.536 1.773-13.686 6.795-14.319 6.44-2.263-1.265.846 2.773 2.458 2.126 5.111-2.056 16.45-4.141 19.136-4.391v-3.569h-.001z" fill="#613B22"/><path d="M98.413 131.449c5.726 0 11.295-1.693 15.86-4.822l14.227-9.755c.535-.37 1.057-.76 1.516-1.206 5.124-4.999 7.055-13.284 8.304-19.972l3.356-17.786c.581-3.085.824-6.215.727-9.342l.323-23.859a17.878 17.878 0 0 0-.605-4.139c-1.325-4.921-3.36-8.805-4.073-9.897-4.195-6.414-14.115-20.624-39.673-20.624" fill="#EACCB6"/><path d="M99.578 99.226s.801-.228 3.204-.587c2.225-.333 14.096 4.49 14.096 4.49s-8.278 5.13-17.339 4.458" fill="#DDB49E"/><path d="M100.621 93.811l4.737-.945a3.904 3.904 0 0 1 2.535.339c3.535 1.773 13.686 6.795 14.319 6.44 2.264-1.265-.846 2.773-2.456 2.126-5.112-2.056-16.452-4.141-19.136-4.391v-3.569h.001z" fill="#6B4129"/><path d="M92.009 58.044c.681 0 1.47-2.475.309-3.403-1.161-.926-8.418-2.382-8.418-2.382-1.418-.378-5.923-.477-10.024.7 0 0-9.064 4.71-8.094 4.342 1.795-.68 10.053-1.826 10.053-1.826 2.221-.208 4.608-.415 6.506.152 0-.001 8.988 2.417 9.668 2.417" fill="#613B22"/><path d="M106.397 58.044c-.681 0-1.469-2.475-.309-3.403 1.16-.926 8.418-2.382 8.418-2.382 1.417-.378 5.921-.477 10.022.7 0 0 9.064 4.71 8.096 4.342-1.794-.68-10.055-1.826-10.055-1.826-2.221-.208-4.607-.415-6.504.152.001-.001-8.987 2.417-9.668 2.417" fill="#6B4129"/><path d="M126.041 17.528s-4.414-9.413-7.577-11.445C115.303 4.049 97.918-1.598 90.909.435 83.9 2.468 68.764 9.019 65.602 15.12c-3.164 6.099-8.481 6.55-9.211 9.261-.729 2.712-1.182 11.071-3.44 14.008-2.26 2.936-7.229 13.617-5.196 16.635 2.032 3.019-.452 7.988.451 9.796.905 1.807 0 16.266 4.745 20.785 3.71 3.531 3.627 8.131 1.362 10.616-2.267 2.485-4.525 4.124-6.106 2.4-1.581-1.722-3.389 3.068-2.485 4.514.904 1.446 5.421 5.061 7.455 2.575 2.033-2.485 8.344 9.06 7.003 11.317-1.339 2.26 2.04 2.998 6.487 2.916 4.444-.085 4.113 3.373 2.253 5.195-1.859 1.82 6.248 3.959 4.893-5.756-.724-5.182-3.944-9.459-6.792-12.323-2.917-2.931-4.415-6.972-4.224-11.103.232-4.977.297-11.124-.583-13.516-.688-1.867-1.204-7.621-1.346-14.122-.185-8.45.266-18.165 1.797-22.251 2.712-7.228 2.712-12.651 10.619-17.847 7.908-5.196 22.59-10.167 29.368-8.584 6.776 1.583 22.713.325 23.389-2.108" fill="#613B22"/><path d="M66.665 144.48s1.519 5.847 11.409 12.059c9.894 6.215 21.415 5.424 21.415 5.424l-.68 36.125-26.663-6.363c-7.955-1.9-65.399-6.158-72.146-10.785l33.071-22.141 33.594-14.319z" fill="#131210"/><path d="M131.021 144.48s-1.541 5.847-11.593 12.059c-10.055 6.215-21.763 5.424-21.763 5.424l-.687 36.125 28.301-6.517c6.374-1.469 80.855.492 86.537-2.703l-44.245-29.391-36.55-14.997z" fill="#1C1917"/></g></svg>